<svg width="150" height="150" xmlns="http://www.w3.org/2000/svg">
  <!-- QR Code Background -->
  <rect width="150" height="150" fill="white" stroke="#E0E0E0"/>
  
  <!-- QR Code Pattern (Simplified) -->
  <g fill="#000000">
    <!-- Corner Squares -->
    <rect x="10" y="10" width="30" height="30" fill="none" stroke="#000" stroke-width="3"/>
    <rect x="15" y="15" width="20" height="20"/>
    
    <rect x="110" y="10" width="30" height="30" fill="none" stroke="#000" stroke-width="3"/>
    <rect x="115" y="15" width="20" height="20"/>
    
    <rect x="10" y="110" width="30" height="30" fill="none" stroke="#000" stroke-width="3"/>
    <rect x="15" y="115" width="20" height="20"/>
    
    <!-- Data Pattern -->
    <rect x="50" y="10" width="5" height="5"/>
    <rect x="60" y="10" width="5" height="5"/>
    <rect x="70" y="10" width="5" height="5"/>
    <rect x="90" y="10" width="5" height="5"/>
    
    <rect x="10" y="50" width="5" height="5"/>
    <rect x="20" y="50" width="5" height="5"/>
    <rect x="50" y="50" width="5" height="5"/>
    <rect x="70" y="50" width="5" height="5"/>
    <rect x="80" y="50" width="5" height="5"/>
    <rect x="100" y="50" width="5" height="5"/>
    <rect x="120" y="50" width="5" height="5"/>
    <rect x="130" y="50" width="5" height="5"/>
    
    <rect x="50" y="60" width="5" height="5"/>
    <rect x="80" y="60" width="5" height="5"/>
    <rect x="90" y="60" width="5" height="5"/>
    <rect x="110" y="60" width="5" height="5"/>
    <rect x="140" y="60" width="5" height="5"/>
    
    <rect x="10" y="70" width="5" height="5"/>
    <rect x="30" y="70" width="5" height="5"/>
    <rect x="60" y="70" width="5" height="5"/>
    <rect x="90" y="70" width="5" height="5"/>
    <rect x="110" y="70" width="5" height="5"/>
    <rect x="130" y="70" width="5" height="5"/>
    
    <rect x="50" y="80" width="5" height="5"/>
    <rect x="70" y="80" width="5" height="5"/>
    <rect x="100" y="80" width="5" height="5"/>
    <rect x="120" y="80" width="5" height="5"/>
    <rect x="140" y="80" width="5" height="5"/>
    
    <rect x="10" y="90" width="5" height="5"/>
    <rect x="20" y="90" width="5" height="5"/>
    <rect x="40" y="90" width="5" height="5"/>
    <rect x="60" y="90" width="5" height="5"/>
    <rect x="80" y="90" width="5" height="5"/>
    <rect x="110" y="90" width="5" height="5"/>
    <rect x="130" y="90" width="5" height="5"/>
    
    <!-- Center Pattern -->
    <rect x="65" y="65" width="20" height="20" fill="none" stroke="#000" stroke-width="2"/>
    <rect x="70" y="70" width="10" height="10"/>
    
    <!-- More Data Pattern -->
    <rect x="50" y="110" width="5" height="5"/>
    <rect x="70" y="110" width="5" height="5"/>
    <rect x="80" y="110" width="5" height="5"/>
    <rect x="100" y="110" width="5" height="5"/>
    <rect x="120" y="110" width="5" height="5"/>
    <rect x="140" y="110" width="5" height="5"/>
    
    <rect x="60" y="120" width="5" height="5"/>
    <rect x="90" y="120" width="5" height="5"/>
    <rect x="110" y="120" width="5" height="5"/>
    <rect x="130" y="120" width="5" height="5"/>
    
    <rect x="50" y="130" width="5" height="5"/>
    <rect x="70" y="130" width="5" height="5"/>
    <rect x="100" y="130" width="5" height="5"/>
    <rect x="140" y="130" width="5" height="5"/>
  </g>
  
  <!-- Center Logo -->
  <circle cx="75" cy="75" r="8" fill="#2E7D32"/>
  <text x="75" y="79" text-anchor="middle" font-family="Arial" font-size="8" font-weight="bold" fill="white">DZ</text>
</svg>
