<svg width="200" height="400" xmlns="http://www.w3.org/2000/svg">
  <!-- Measurements Screen -->
  <rect width="200" height="400" fill="#F8F9FA"/>
  
  <!-- Header -->
  <rect x="0" y="0" width="200" height="60" fill="#2E7D32"/>
  <text x="100" y="25" text-anchor="middle" font-family="Arial" font-size="14" font-weight="bold" fill="white">القياسات الطبية</text>
  <text x="100" y="45" text-anchor="middle" font-family="Arial" font-size="10" fill="white">تتبع صحتك يومياً</text>
  
  <!-- Chart Area -->
  <rect x="10" y="80" width="180" height="120" rx="8" fill="white" stroke="#E0E0E0"/>
  <text x="20" y="100" font-family="Arial" font-size="12" font-weight="bold" fill="#2E7D32">ضغط الدم - آخر 7 أيام</text>
  
  <!-- Simple Chart -->
  <polyline points="20,180 40,160 60,170 80,150 100,165 120,145 140,155 160,140 180,150" 
            fill="none" stroke="#4CAF50" stroke-width="2"/>
  <polyline points="20,185 40,175 60,180 80,170 100,175 120,165 140,170 160,160 180,165" 
            fill="none" stroke="#FF5722" stroke-width="2"/>
  
  <!-- Legend -->
  <rect x="20" y="110" width="8" height="2" fill="#4CAF50"/>
  <text x="32" y="115" font-family="Arial" font-size="8" fill="#666">الانقباضي</text>
  <rect x="80" y="110" width="8" height="2" fill="#FF5722"/>
  <text x="92" y="115" font-family="Arial" font-size="8" fill="#666">الانبساطي</text>
  
  <!-- Recent Measurements -->
  <rect x="10" y="220" width="180" height="160" rx="8" fill="white" stroke="#E0E0E0"/>
  <text x="20" y="240" font-family="Arial" font-size="12" font-weight="bold" fill="#2E7D32">القياسات الأخيرة</text>
  
  <!-- Measurement Items -->
  <rect x="20" y="250" width="160" height="30" rx="4" fill="#E3F2FD"/>
  <circle cx="35" cy="265" r="8" fill="#1976D2"/>
  <text x="35" y="269" text-anchor="middle" font-family="Arial" font-size="8" fill="white">♥</text>
  <text x="50" y="262" font-family="Arial" font-size="10" font-weight="bold" fill="#333">ضغط الدم</text>
  <text x="50" y="274" font-family="Arial" font-size="8" fill="#666">اليوم 08:30</text>
  <text x="160" y="268" text-anchor="end" font-family="Arial" font-size="10" font-weight="bold" fill="#1976D2">120/80</text>
  
  <rect x="20" y="290" width="160" height="30" rx="4" fill="#FFF3E0"/>
  <circle cx="35" cy="305" r="8" fill="#F57C00"/>
  <text x="35" y="309" text-anchor="middle" font-family="Arial" font-size="8" fill="white">🩸</text>
  <text x="50" y="302" font-family="Arial" font-size="10" font-weight="bold" fill="#333">السكر</text>
  <text x="50" y="314" font-family="Arial" font-size="8" fill="#666">أمس 07:00</text>
  <text x="160" y="308" text-anchor="end" font-family="Arial" font-size="10" font-weight="bold" fill="#F57C00">95 mg/dl</text>
  
  <rect x="20" y="330" width="160" height="30" rx="4" fill="#E8F5E8"/>
  <circle cx="35" cy="345" r="8" fill="#388E3C"/>
  <text x="35" y="349" text-anchor="middle" font-family="Arial" font-size="8" fill="white">⚖</text>
  <text x="50" y="342" font-family="Arial" font-size="10" font-weight="bold" fill="#333">الوزن</text>
  <text x="50" y="354" font-family="Arial" font-size="8" fill="#666">أمس 06:00</text>
  <text x="160" y="348" text-anchor="end" font-family="Arial" font-size="10" font-weight="bold" fill="#388E3C">75.2 كغ</text>
  
  <!-- FAB -->
  <circle cx="170" cy="370" r="20" fill="#2E7D32"/>
  <text x="170" y="375" text-anchor="middle" font-family="Arial" font-size="16" fill="white">+</text>
</svg>
